<svg xmlns="http://www.w3.org/2000/svg" viewBox="0 0 256 256" role="img" aria-label="Cheesecake"><defs><linearGradient id="g" x1="0" y1="0" x2="1" y2="1"><stop offset="0" stop-color="#fbf4ea"/><stop offset="1" stop-color="#efe0c8"/></linearGradient></defs><rect width="256" height="256" rx="56" fill="url(#g)"/><circle cx="128" cy="128" r="86" fill="#ffffff" fill-opacity="0.55"/><svg xmlns="http://www.w3.org/2000/svg" x="58" y="58" width="140" height="140" viewBox="0 0 24 24" fill="none" stroke="#7a5c35" stroke-width="1.6" stroke-linecap="round" stroke-linejoin="round" aria-hidden="true"><path d="M16 13H3"></path><path d="M16 17H3"></path><path d="m7.2 7.9-3.388 2.5A2 2 0 0 0 3 12.01V20a1 1 0 0 0 1 1h16a1 1 0 0 0 1-1v-8.654c0-2-2.44-6.026-6.44-8.026a1 1 0 0 0-1.082.057L10.4 5.6"></path><circle cx="9" cy="7" r="2"></circle></svg></svg>
