<svg xmlns="http://www.w3.org/2000/svg" viewBox="0 0 256 256" role="img" aria-label="Pancit Bihon"><defs><linearGradient id="g" x1="0" y1="0" x2="1" y2="1"><stop offset="0" stop-color="#fff6d6"/><stop offset="1" stop-color="#fde59a"/></linearGradient></defs><rect width="256" height="256" rx="56" fill="url(#g)"/><circle cx="128" cy="128" r="86" fill="#ffffff" fill-opacity="0.55"/><svg xmlns="http://www.w3.org/2000/svg" x="58" y="58" width="140" height="140" viewBox="0 0 24 24" fill="none" stroke="#a16207" stroke-width="1.6" stroke-linecap="round" stroke-linejoin="round" aria-hidden="true"><path d="M2 12h20"></path><path d="M20 12v8a2 2 0 0 1-2 2H6a2 2 0 0 1-2-2v-8"></path><path d="m4 8 16-4"></path><path d="m8.86 6.78-.45-1.81a2 2 0 0 1 1.45-2.43l1.94-.48a2 2 0 0 1 2.43 1.46l.45 1.8"></path></svg></svg>
