<svg xmlns="http://www.w3.org/2000/svg" viewBox="0 0 256 256" role="img" aria-label="Pitcher Juice"><defs><linearGradient id="g" x1="0" y1="0" x2="1" y2="1"><stop offset="0" stop-color="#fff0d9"/><stop offset="1" stop-color="#ffd59a"/></linearGradient></defs><rect width="256" height="256" rx="56" fill="url(#g)"/><circle cx="128" cy="128" r="86" fill="#ffffff" fill-opacity="0.55"/><svg xmlns="http://www.w3.org/2000/svg" x="58" y="58" width="140" height="140" viewBox="0 0 24 24" fill="none" stroke="#c2410c" stroke-width="1.6" stroke-linecap="round" stroke-linejoin="round" aria-hidden="true"><path d="M8 2h8"></path><path d="M9 2v2.789a4 4 0 0 1-.672 2.219l-.656.984A4 4 0 0 0 7 10.212V20a2 2 0 0 0 2 2h6a2 2 0 0 0 2-2v-9.789a4 4 0 0 0-.672-2.219l-.656-.984A4 4 0 0 1 15 4.788V2"></path><path d="M7 15a6.472 6.472 0 0 1 5 0 6.47 6.47 0 0 0 5 0"></path></svg></svg>
