<svg xmlns="http://www.w3.org/2000/svg" viewBox="0 0 256 256" role="img" aria-label="White Chocolate"><defs><linearGradient id="g" x1="0" y1="0" x2="1" y2="1"><stop offset="0" stop-color="#fff7e0"/><stop offset="1" stop-color="#fde9b6"/></linearGradient></defs><rect width="256" height="256" rx="56" fill="url(#g)"/><circle cx="128" cy="128" r="86" fill="#ffffff" fill-opacity="0.55"/><svg xmlns="http://www.w3.org/2000/svg" x="58" y="58" width="140" height="140" viewBox="0 0 24 24" fill="none" stroke="#8a6a12" stroke-width="1.6" stroke-linecap="round" stroke-linejoin="round" aria-hidden="true"><path d="M10 2v2"></path><path d="M14 2v2"></path><path d="M16 8a1 1 0 0 1 1 1v8a4 4 0 0 1-4 4H7a4 4 0 0 1-4-4V9a1 1 0 0 1 1-1h14a4 4 0 1 1 0 8h-1"></path><path d="M6 2v2"></path></svg></svg>
